<?xml version="1.0" encoding="UTF-8" standalone="no"?>
<svg
   xmlns:dc="http://purl.org/dc/elements/1.1/"
   xmlns:cc="http://creativecommons.org/ns#"
   xmlns:rdf="http://www.w3.org/1999/02/22-rdf-syntax-ns#"
   xmlns:svg="http://www.w3.org/2000/svg"
   xmlns="http://www.w3.org/2000/svg"
   xmlns:sodipodi="http://sodipodi.sourceforge.net/DTD/sodipodi-0.dtd"
   xmlns:inkscape="http://www.inkscape.org/namespaces/inkscape"
   id="svg3789"
   version="1.1"
   viewBox="0 0 4.2333332 4.2333335"
   height="16"
   width="16"
   sodipodi:docname="ffx-launch.svg"
   inkscape:version="0.92.5 (2060ec1f9f, 2020-04-08)">
  <sodipodi:namedview
     pagecolor="#ffffff"
     bordercolor="#666666"
     borderopacity="1"
     objecttolerance="10"
     gridtolerance="10"
     guidetolerance="10"
     inkscape:pageopacity="0"
     inkscape:pageshadow="2"
     inkscape:window-width="1920"
     inkscape:window-height="1016"
     id="namedview64"
     showgrid="false"
     inkscape:zoom="40"
     inkscape:cx="8.8339207"
     inkscape:cy="7.6284878"
     inkscape:window-x="0"
     inkscape:window-y="27"
     inkscape:window-maximized="1"
     inkscape:current-layer="svg3789" />
  <defs
     id="defs3783" />
  <metadata
     id="metadata3786">
    <rdf:RDF>
      <cc:Work
         rdf:about="">
        <dc:format>image/svg+xml</dc:format>
        <dc:type
           rdf:resource="http://purl.org/dc/dcmitype/StillImage" />
        <dc:title></dc:title>
      </cc:Work>
    </rdf:RDF>
  </metadata>
  <path
     inkscape:connector-curvature="0"
     style="fill:#b4b4b4;fill-opacity:1;stroke:none;stroke-width:0.00198438;stroke-miterlimit:4;stroke-dasharray:none;stroke-opacity:1"
     d="M 1.0018121,3.132564 C 1.2370441,3.7543436 1.8596714,4.2561971 2.5661999,4.2563293 3.4775754,4.2564431 4.2165161,3.5207415 4.2167453,2.6130188 4.2167872,1.9486759 3.7682018,1.3366864 3.1987695,1.077469 2.6935511,2.6819278 1.9105202,2.943626 1.0018121,3.132564 Z M 2.9398205,1.779478 C 3.042269,1.7793034 3.1253952,1.8638189 3.1253389,1.9680969 3.1251149,2.0721731 3.0420709,2.1563737 2.9398205,2.1561992 2.8377718,2.1560835 2.7550426,2.0719677 2.7548189,1.9680969 2.7547628,1.8640244 2.8375739,1.7795941 2.9398205,1.779478 Z m -0.820105,0.0031 c 0.1024487,-1.746e-4 0.185575,0.084341 0.1855184,0.1886195 5.63e-5,0.1042781 -0.08307,0.1887936 -0.1855184,0.188619 C 2.0174688,2.1597004 1.9346578,2.07527 1.9347139,1.9711975 1.9346575,1.8671248 2.0174687,1.7826941 2.1197155,1.782578 Z M 3.3656343,3.0290141 3.5470186,3.222284 C 2.9971686,3.7410557 2.2246963,3.7410403 1.6117362,3.2341695 L 1.7817517,3.0310812 c 0.5335677,0.4412193 1.1194967,0.436071 1.5838826,-0.00207 z"
     id="path4683-6"
     sodipodi:nodetypes="ccccccccccccccccccccc" />
  <path
     style="fill:#ffffff;fill-opacity:1;stroke:none;stroke-width:0.00198438;stroke-miterlimit:4;stroke-dasharray:none;stroke-opacity:1"
     d="M 1.6634643,0.00671794 A 1.6503384,1.6437239 0 0 0 0.01343587,1.6505452 1.6503384,1.6437239 0 0 0 1.6634643,3.2938558 1.6503384,1.6437239 0 0 0 3.3140096,1.6505452 1.6503384,1.6437239 0 0 0 1.6634643,0.00671794 Z M 2.0370849,0.81700438 A 0.18520832,0.18851563 0 0 1 2.2226033,1.0056233 0.18520832,0.18851563 0 0 1 2.0370849,1.1937256 0.18520832,0.18851563 0 0 1 1.8520833,1.0056233 0.18520832,0.18851563 0 0 1 2.0370849,0.81700438 Z m -0.820105,0.003101 A 0.18520832,0.18851563 0 0 1 1.4024983,1.0087239 0.18520832,0.18851563 0 0 1 1.2169799,1.1973429 0.18520832,0.18851563 0 0 1 1.0319783,1.0087239 0.18520832,0.18851563 0 0 1 1.2169799,0.82010538 Z M 2.4628987,2.0665405 2.644283,2.2598103 C 2.094433,2.7785822 1.3219607,2.7785668 0.70900063,2.2716959 L 0.87901613,2.0686076 C 1.4125838,2.5098269 1.9985128,2.5046785 2.4628987,2.0665376 Z"
     id="path4683"
     inkscape:connector-curvature="0" />
</svg>
